<svg width="32" height="32" viewBox="0 0 32 32" fill="none" xmlns="http://www.w3.org/2000/svg">
<path d="M9.33073 -0.000610352C4.1854 -0.000610352 0 4.18866 0 9.33533V22.6687C0 27.814 4.18927 31.9994 9.33594 31.9994H22.6693C27.8146 31.9994 32 27.8101 32 22.6635V9.33012C32 4.18479 27.8107 -0.000610352 22.6641 -0.000610352H9.33073ZM25.3333 5.33272C26.0693 5.33272 26.6667 5.93006 26.6667 6.66606C26.6667 7.40206 26.0693 7.99939 25.3333 7.99939C24.5973 7.99939 24 7.40206 24 6.66606C24 5.93006 24.5973 5.33272 25.3333 5.33272ZM16 7.99939C20.412 7.99939 24 11.5874 24 15.9994C24 20.4114 20.412 23.9994 16 23.9994C11.588 23.9994 8 20.4114 8 15.9994C8 11.5874 11.588 7.99939 16 7.99939ZM16 10.6661C14.5855 10.6661 13.229 11.228 12.2288 12.2282C11.2286 13.2283 10.6667 14.5849 10.6667 15.9994C10.6667 17.4139 11.2286 18.7704 12.2288 19.7706C13.229 20.7708 14.5855 21.3327 16 21.3327C17.4145 21.3327 18.771 20.7708 19.7712 19.7706C20.7714 18.7704 21.3333 17.4139 21.3333 15.9994C21.3333 14.5849 20.7714 13.2283 19.7712 12.2282C18.771 11.228 17.4145 10.6661 16 10.6661Z" fill="black"/>
</svg>
