<svg width="138" height="138" viewBox="0 0 138 138" fill="none" xmlns="http://www.w3.org/2000/svg">
<g clip-path="url(#clip0_15_1411)">
<rect width="138" height="138" rx="4" fill="#314199"/>
<path d="M110.812 123.528V113.307H113.367V114.419H113.738C113.917 114.076 114.212 113.781 114.624 113.533C115.037 113.272 115.579 113.142 116.253 113.142C116.981 113.142 117.565 113.286 118.004 113.574C118.444 113.849 118.781 114.213 119.014 114.667H119.385C119.619 114.227 119.948 113.863 120.374 113.574C120.8 113.286 121.405 113.142 122.188 113.142C122.82 113.142 123.39 113.279 123.898 113.554C124.42 113.815 124.833 114.22 125.135 114.77C125.451 115.306 125.609 115.986 125.609 116.81V123.528H123.012V116.995C123.012 116.432 122.868 116.013 122.579 115.738C122.291 115.45 121.886 115.306 121.363 115.306C120.773 115.306 120.312 115.498 119.983 115.883C119.667 116.254 119.509 116.789 119.509 117.49V123.528H116.912V116.995C116.912 116.432 116.768 116.013 116.479 115.738C116.191 115.45 115.785 115.306 115.263 115.306C114.673 115.306 114.212 115.498 113.883 115.883C113.567 116.254 113.409 116.789 113.409 117.49V123.528H110.812Z" fill="#F3FCF0"/>
<path d="M103.263 123.817C102.246 123.817 101.333 123.611 100.522 123.199C99.7114 122.786 99.0726 122.189 98.6054 121.406C98.1383 120.623 97.9048 119.681 97.9048 118.582V118.253C97.9048 117.153 98.1383 116.212 98.6054 115.429C99.0726 114.646 99.7114 114.048 100.522 113.636C101.333 113.224 102.246 113.018 103.263 113.018C104.28 113.018 105.193 113.224 106.004 113.636C106.814 114.048 107.453 114.646 107.92 115.429C108.388 116.212 108.621 117.153 108.621 118.253V118.582C108.621 119.681 108.388 120.623 107.92 121.406C107.453 122.189 106.814 122.786 106.004 123.199C105.193 123.611 104.28 123.817 103.263 123.817ZM103.263 121.509C104.06 121.509 104.719 121.255 105.241 120.746C105.763 120.224 106.024 119.482 106.024 118.52V118.314C106.024 117.353 105.763 116.618 105.241 116.109C104.733 115.587 104.074 115.326 103.263 115.326C102.466 115.326 101.807 115.587 101.285 116.109C100.762 116.618 100.501 117.353 100.501 118.314V118.52C100.501 119.482 100.762 120.224 101.285 120.746C101.807 121.255 102.466 121.509 103.263 121.509Z" fill="#F3FCF0"/>
<path d="M91.3319 123.817C90.3427 123.817 89.4428 123.611 88.6322 123.199C87.8354 122.786 87.2034 122.189 86.7362 121.406C86.2691 120.623 86.0356 119.675 86.0356 118.562V118.273C86.0356 117.16 86.2691 116.212 86.7362 115.429C87.2034 114.646 87.8354 114.048 88.6322 113.636C89.4428 113.224 90.3427 113.018 91.3319 113.018C92.3074 113.018 93.1455 113.19 93.8462 113.533C94.5468 113.877 95.1101 114.351 95.536 114.955C95.9757 115.546 96.2642 116.219 96.4016 116.975L93.8874 117.511C93.8324 117.099 93.7088 116.728 93.5164 116.398C93.3241 116.068 93.0493 115.807 92.6921 115.615C92.3486 115.422 91.9158 115.326 91.3938 115.326C90.8717 115.326 90.3977 115.443 89.9718 115.677C89.5596 115.896 89.2299 116.233 88.9826 116.686C88.749 117.126 88.6322 117.669 88.6322 118.314V118.52C88.6322 119.166 88.749 119.716 88.9826 120.169C89.2299 120.609 89.5596 120.945 89.9718 121.179C90.3977 121.399 90.8717 121.509 91.3938 121.509C92.1769 121.509 92.7676 121.309 93.1661 120.911C93.5782 120.499 93.8393 119.963 93.9492 119.304L96.4634 119.901C96.2848 120.629 95.9757 121.296 95.536 121.9C95.1101 122.491 94.5468 122.958 93.8462 123.302C93.1455 123.645 92.3074 123.817 91.3319 123.817Z" fill="#F3FCF0"/>
<path d="M82.3468 123.817C81.7973 123.817 81.3301 123.638 80.9454 123.281C80.5745 122.91 80.389 122.436 80.389 121.859C80.389 121.282 80.5745 120.815 80.9454 120.458C81.3301 120.087 81.7973 119.901 82.3468 119.901C82.9101 119.901 83.3772 120.087 83.7482 120.458C84.1191 120.815 84.3046 121.282 84.3046 121.859C84.3046 122.436 84.1191 122.91 83.7482 123.281C83.3772 123.638 82.9101 123.817 82.3468 123.817Z" fill="#F3FCF0"/>
<path d="M73.8089 123.817C72.7923 123.817 71.8924 123.604 71.1092 123.178C70.3399 122.738 69.7353 122.127 69.2957 121.344C68.8698 120.547 68.6568 119.613 68.6568 118.541V118.294C68.6568 117.222 68.8698 116.295 69.2957 115.512C69.7216 114.715 70.3192 114.103 71.0886 113.678C71.858 113.238 72.751 113.018 73.7677 113.018C74.7707 113.018 75.6431 113.245 76.385 113.698C77.1269 114.138 77.7039 114.756 78.1161 115.553C78.5283 116.336 78.7344 117.25 78.7344 118.294V119.18H71.2947C71.3222 119.881 71.5832 120.451 72.0778 120.89C72.5724 121.33 73.1769 121.55 73.8914 121.55C74.6195 121.55 75.1554 121.392 75.4988 121.076C75.8423 120.76 76.1033 120.41 76.2819 120.025L78.4046 121.138C78.2123 121.495 77.9306 121.887 77.5597 122.312C77.2025 122.725 76.7216 123.082 76.1171 123.384C75.5126 123.673 74.7432 123.817 73.8089 123.817ZM71.3153 117.243H76.0965C76.0415 116.652 75.8011 116.178 75.3752 115.821C74.963 115.464 74.4203 115.285 73.7471 115.285C73.0464 115.285 72.49 115.464 72.0778 115.821C71.6657 116.178 71.4115 116.652 71.3153 117.243Z" fill="#F3FCF0"/>
<path d="M56.2157 127.65V113.307H58.7711V114.543H59.142C59.3756 114.145 59.7397 113.794 60.2343 113.492C60.7289 113.176 61.4365 113.018 62.357 113.018C63.1813 113.018 63.9438 113.224 64.6445 113.636C65.3452 114.035 65.9085 114.625 66.3344 115.409C66.7603 116.192 66.9733 117.14 66.9733 118.253V118.582C66.9733 119.695 66.7603 120.643 66.3344 121.426C65.9085 122.209 65.3452 122.807 64.6445 123.219C63.9438 123.618 63.1813 123.817 62.357 123.817C61.7387 123.817 61.2166 123.741 60.7907 123.59C60.3786 123.453 60.042 123.274 59.7809 123.054C59.5336 122.821 59.3344 122.587 59.1833 122.354H58.8123V127.65H56.2157ZM61.5738 121.55C62.3844 121.55 63.0508 121.296 63.5729 120.787C64.1087 120.265 64.3766 119.51 64.3766 118.52V118.314C64.3766 117.325 64.1087 116.576 63.5729 116.068C63.037 115.546 62.3707 115.285 61.5738 115.285C60.777 115.285 60.1106 115.546 59.5748 116.068C59.039 116.576 58.7711 117.325 58.7711 118.314V118.52C58.7711 119.51 59.039 120.265 59.5748 120.787C60.1106 121.296 60.777 121.55 61.5738 121.55Z" fill="#F3FCF0"/>
<path d="M48.6667 123.817C47.65 123.817 46.7363 123.611 45.9258 123.199C45.1152 122.786 44.4763 122.189 44.0092 121.406C43.542 120.623 43.3085 119.681 43.3085 118.582V118.253C43.3085 117.153 43.542 116.212 44.0092 115.429C44.4763 114.646 45.1152 114.048 45.9258 113.636C46.7363 113.224 47.65 113.018 48.6667 113.018C49.6834 113.018 50.597 113.224 51.4076 113.636C52.2182 114.048 52.8571 114.646 53.3242 115.429C53.7913 116.212 54.0249 117.153 54.0249 118.253V118.582C54.0249 119.681 53.7913 120.623 53.3242 121.406C52.8571 122.189 52.2182 122.786 51.4076 123.199C50.597 123.611 49.6834 123.817 48.6667 123.817ZM48.6667 121.509C49.4635 121.509 50.123 121.255 50.6451 120.746C51.1672 120.224 51.4282 119.482 51.4282 118.52V118.314C51.4282 117.353 51.1672 116.618 50.6451 116.109C50.1367 115.587 49.4773 115.326 48.6667 115.326C47.8698 115.326 47.2103 115.587 46.6883 116.109C46.1662 116.618 45.9051 117.353 45.9051 118.314V118.52C45.9051 119.482 46.1662 120.224 46.6883 120.746C47.2103 121.255 47.8698 121.509 48.6667 121.509Z" fill="#F3FCF0"/>
<path d="M36.2005 123.528V113.307H38.756V114.461H39.1269C39.2781 114.048 39.5254 113.746 39.8688 113.554C40.2261 113.361 40.6382 113.265 41.1054 113.265H42.3419V115.573H41.0641C40.4047 115.573 39.862 115.752 39.4361 116.109C39.0102 116.453 38.7972 116.989 38.7972 117.717V123.528H36.2005Z" fill="#F3FCF0"/>
<path d="M27.6025 123.693C26.8056 123.693 26.1049 123.515 25.5004 123.157C24.9097 122.786 24.4494 122.278 24.1197 121.632C23.7899 120.987 23.6251 120.245 23.6251 119.407V113.306H26.2217V119.2C26.2217 119.97 26.4072 120.547 26.7782 120.932C27.1628 121.316 27.7055 121.509 28.4062 121.509C29.2031 121.509 29.8213 121.248 30.261 120.726C30.7006 120.19 30.9204 119.448 30.9204 118.5V113.306H33.5171V123.528H30.9617V122.189H30.5907C30.4258 122.532 30.1167 122.869 29.6633 123.199C29.2099 123.528 28.523 123.693 27.6025 123.693Z" fill="#F3FCF0"/>
<path d="M12.42 123.528V109.102H21.6938V111.575H15.1403V115.017H21.1168V117.49H15.1403V121.055H21.8175V123.528H12.42Z" fill="#F3FCF0"/>
<path d="M89.2482 107.136V104.869H94.8125C95.1972 104.869 95.3896 104.663 95.3896 104.25V101.674H95.0186C94.9087 101.908 94.737 102.141 94.5034 102.375C94.2698 102.609 93.9538 102.801 93.5554 102.952C93.157 103.103 92.6486 103.179 92.0304 103.179C91.2335 103.179 90.5328 103 89.9283 102.643C89.3375 102.272 88.8773 101.764 88.5476 101.118C88.2178 100.472 88.053 99.7302 88.053 98.8921V92.7921H90.6496V98.6861C90.6496 99.4554 90.8351 100.032 91.206 100.417C91.5907 100.802 92.1334 100.994 92.8341 100.994C93.631 100.994 94.2492 100.733 94.6889 100.211C95.1285 99.6753 95.3483 98.9334 95.3483 97.9854V92.7921H97.945V104.827C97.945 105.528 97.7389 106.084 97.3268 106.497C96.9146 106.923 96.365 107.136 95.6781 107.136H89.2482Z" fill="#F3FCF0"/>
<path d="M79.8827 103.302C79.1545 103.302 78.5019 103.179 77.9249 102.931C77.3478 102.67 76.8876 102.299 76.5441 101.819C76.2144 101.324 76.0495 100.726 76.0495 100.026C76.0495 99.3249 76.2144 98.741 76.5441 98.2739C76.8876 97.793 77.3547 97.4358 77.9455 97.2022C78.55 96.9549 79.2369 96.8313 80.0063 96.8313H82.8091V96.2542C82.8091 95.7734 82.6579 95.3818 82.3557 95.0795C82.0534 94.7636 81.5726 94.6056 80.9131 94.6056C80.2674 94.6056 79.7865 94.7567 79.4705 95.0589C79.1545 95.3475 78.9484 95.7253 78.8522 96.1924L76.4617 95.3887C76.6265 94.8666 76.8876 94.3926 77.2448 93.9667C77.6157 93.527 78.1035 93.1767 78.708 92.9157C79.3262 92.6409 80.075 92.5035 80.9543 92.5035C82.3007 92.5035 83.3655 92.8401 84.1486 93.5133C84.9317 94.1865 85.3233 95.162 85.3233 96.4397V100.252C85.3233 100.664 85.5156 100.871 85.9003 100.871H86.7247V103.014H84.9936C84.4852 103.014 84.0662 102.89 83.7364 102.643C83.4067 102.396 83.2418 102.066 83.2418 101.654V101.633H82.8503C82.7953 101.798 82.6717 102.018 82.4793 102.292C82.287 102.554 81.9847 102.787 81.5726 102.993C81.1604 103.199 80.5971 103.302 79.8827 103.302ZM80.336 101.2C81.0642 101.2 81.655 101.001 82.1084 100.603C82.5755 100.19 82.8091 99.6477 82.8091 98.9745V98.7685H80.1918C79.7109 98.7685 79.3331 98.8715 79.0583 99.0776C78.7836 99.2837 78.6462 99.5722 78.6462 99.9431C78.6462 100.314 78.7904 100.616 79.0789 100.85C79.3675 101.083 79.7865 101.2 80.336 101.2Z" fill="#F3FCF0"/>
<path d="M59.5921 103.014L57.6961 88.5879H60.3958L61.7972 101.118H62.1681L63.9817 88.5879H68.6804L70.4939 101.118H70.8649L72.2663 88.5879H74.966L73.07 103.014H68.3713L66.5165 90.1953H66.1456L64.2908 103.014H59.5921Z" fill="#F3FCF0"/>
<path d="M47.1402 107.136V104.869H52.7045C53.0892 104.869 53.2816 104.663 53.2816 104.25V101.674H52.9106C52.8007 101.908 52.629 102.141 52.3954 102.375C52.1618 102.609 51.8458 102.801 51.4474 102.952C51.049 103.103 50.5406 103.179 49.9224 103.179C49.1255 103.179 48.4248 103 47.8203 102.643C47.2296 102.272 46.7693 101.764 46.4396 101.118C46.1098 100.472 45.945 99.7302 45.945 98.8921V92.7921H48.5416V98.6861C48.5416 99.4554 48.7271 100.032 49.098 100.417C49.4827 100.802 50.0254 100.994 50.7261 100.994C51.523 100.994 52.1412 100.733 52.5809 100.211C53.0205 99.6753 53.2403 98.9334 53.2403 97.9854V92.7921H55.837V104.827C55.837 105.528 55.6309 106.084 55.2188 106.497C54.8066 106.923 54.257 107.136 53.5701 107.136H47.1402Z" fill="#F3FCF0"/>
<path d="M39.6714 103.302C38.3388 103.302 37.2465 103.014 36.3947 102.437C35.5429 101.86 35.0277 101.035 34.8491 99.9637L37.2396 99.3455C37.3358 99.8264 37.4938 100.204 37.7136 100.479C37.9472 100.754 38.2289 100.953 38.5586 101.077C38.9021 101.187 39.273 101.241 39.6714 101.241C40.276 101.241 40.7225 101.138 41.011 100.932C41.2995 100.713 41.4438 100.445 41.4438 100.129C41.4438 99.8126 41.3064 99.5722 41.0316 99.4073C40.7568 99.2287 40.3172 99.0845 39.7127 98.9745L39.1356 98.8715C38.4212 98.7341 37.7686 98.5486 37.1778 98.3151C36.587 98.0678 36.1131 97.7312 35.7558 97.3053C35.3986 96.8794 35.22 96.3298 35.22 95.6566C35.22 94.6399 35.591 93.8637 36.3329 93.3278C37.0748 92.7783 38.0502 92.5035 39.2593 92.5035C40.3996 92.5035 41.3476 92.7577 42.1032 93.266C42.8589 93.7743 43.3535 94.4407 43.587 95.265L41.1759 96.0069C41.0659 95.4848 40.8393 95.1139 40.4958 94.8941C40.166 94.6742 39.7539 94.5643 39.2593 94.5643C38.7647 94.5643 38.3868 94.6536 38.1258 94.8322C37.8648 94.9971 37.7342 95.2307 37.7342 95.5329C37.7342 95.8627 37.8716 96.11 38.1464 96.2748C38.4212 96.426 38.7921 96.5427 39.2593 96.6252L39.8363 96.7282C40.6057 96.8656 41.2995 97.0511 41.9178 97.2846C42.5497 97.5045 43.0444 97.8273 43.4016 98.2532C43.7725 98.6654 43.958 99.2287 43.958 99.9431C43.958 101.015 43.5664 101.846 42.7833 102.437C42.0139 103.014 40.9766 103.302 39.6714 103.302Z" fill="#F3FCF0"/>
<path d="M26.9721 103.302C26.244 103.302 25.5914 103.179 25.0143 102.931C24.4373 102.67 23.977 102.299 23.6336 101.819C23.3038 101.324 23.139 100.726 23.139 100.026C23.139 99.3249 23.3038 98.741 23.6336 98.2739C23.977 97.793 24.4442 97.4358 25.0349 97.2022C25.6395 96.9549 26.3264 96.8313 27.0958 96.8313H29.8985V96.2542C29.8985 95.7734 29.7474 95.3818 29.4451 95.0795C29.1429 94.7636 28.662 94.6056 28.0026 94.6056C27.3568 94.6056 26.876 94.7567 26.56 95.0589C26.244 95.3475 26.0379 95.7253 25.9417 96.1924L23.5511 95.3887C23.716 94.8666 23.977 94.3926 24.3343 93.9667C24.7052 93.527 25.1929 93.1767 25.7974 92.9157C26.4157 92.6409 27.1645 92.5035 28.0438 92.5035C29.3902 92.5035 30.455 92.8401 31.2381 93.5133C32.0212 94.1865 32.4128 95.162 32.4128 96.4397V100.252C32.4128 100.664 32.6051 100.871 32.9898 100.871H33.8141V103.014H32.083C31.5747 103.014 31.1556 102.89 30.8259 102.643C30.4962 102.396 30.3313 102.066 30.3313 101.654V101.633H29.9397C29.8848 101.798 29.7611 102.018 29.5688 102.292C29.3764 102.554 29.0742 102.787 28.662 102.993C28.2499 103.199 27.6866 103.302 26.9721 103.302ZM27.4255 101.2C28.1537 101.2 28.7445 101.001 29.1978 100.603C29.665 100.19 29.8985 99.6477 29.8985 98.9745V98.7685H27.2813C26.8004 98.7685 26.4226 98.8715 26.1478 99.0776C25.873 99.2837 25.7356 99.5722 25.7356 99.9431C25.7356 100.314 25.8799 100.616 26.1684 100.85C26.4569 101.083 26.876 101.2 27.4255 101.2Z" fill="#F3FCF0"/>
<path d="M12.511 103.014V88.5879H21.7848V91.0609H15.2313V94.5025H21.2077V96.9755H15.2313V100.541H21.9084V103.014H12.511Z" fill="#F3FCF0"/>
<path d="M78.9858 10.2617C79.4708 9.7767 80.2572 9.77675 80.7422 10.2618L88.6463 18.1657C89.1313 18.6507 89.1312 19.4372 88.6462 19.9222L80.7421 27.8262C80.2571 28.3112 79.4708 28.3113 78.9857 27.8263C78.5007 27.3412 78.5008 26.5549 78.9858 26.0699L84.7696 20.2859L22.5847 20.2859C22.0042 23.3463 19.318 25.6627 16.0879 25.668C12.4296 25.674 9.45905 22.7132 9.45302 19.0549C9.447 15.3966 12.4078 12.426 16.0661 12.42C19.3037 12.4147 22.0024 14.733 22.5846 17.8021L84.7694 17.802L78.9857 12.0182C78.5007 11.5332 78.5007 10.7467 78.9858 10.2617Z" fill="#F3FCF0"/>
<path d="M125.42 20.9639C125.091 20.9639 124.797 20.8962 124.538 20.761C124.284 20.6258 124.082 20.4159 123.934 20.1314C123.79 19.847 123.719 19.4832 123.719 19.0402C123.719 18.5785 123.795 18.2031 123.948 17.914C124.101 17.6249 124.307 17.4127 124.566 17.2775C124.83 17.1422 125.129 17.0746 125.462 17.0746C125.652 17.0746 125.835 17.0956 126.011 17.1376C126.187 17.1749 126.33 17.2215 126.441 17.2775L126.254 17.7881C126.143 17.7461 126.013 17.7065 125.865 17.6692C125.717 17.6319 125.578 17.6132 125.448 17.6132C125.198 17.6132 124.992 17.6668 124.83 17.7741C124.668 17.8814 124.547 18.0399 124.469 18.2498C124.39 18.4596 124.351 18.7208 124.351 19.0332C124.351 19.3317 124.39 19.5858 124.469 19.7957C124.547 20.0055 124.666 20.1641 124.823 20.2713C124.98 20.3786 125.177 20.4322 125.413 20.4322C125.617 20.4322 125.795 20.4112 125.948 20.3693C126.105 20.3273 126.249 20.276 126.379 20.2154V20.761C126.254 20.8263 126.115 20.8753 125.962 20.9079C125.814 20.9452 125.633 20.9639 125.42 20.9639Z" fill="#F3FCF0"/>
<path d="M128.164 19.0192C128.164 17.577 126.994 16.4079 125.552 16.4079C124.11 16.4079 122.941 17.577 122.941 19.0192C122.941 20.4614 124.11 21.6306 125.552 21.6306V22.2418C123.772 22.2418 122.33 20.799 122.33 19.0192C122.33 17.2395 123.772 15.7967 125.552 15.7967C127.332 15.7967 128.775 17.2395 128.775 19.0192C128.775 20.799 127.332 22.2418 125.552 22.2418V21.6306C126.994 21.6306 128.164 20.4614 128.164 19.0192Z" fill="#F3FCF0"/>
<path d="M135.346 136.357V138H2.52747V136.357H135.346ZM136.231 135.473V2.52747C136.231 2.03892 135.835 1.64286 135.346 1.64286H2.52747C2.03891 1.64286 1.64286 2.03891 1.64286 2.52747V135.473C1.64286 135.961 2.03891 136.357 2.52747 136.357V138C1.15342 138 0.0354915 136.904 0.000863882 135.538L0 135.473V2.52747C0 1.15342 1.09648 0.0354913 2.46219 0.000863882L2.52747 0H135.346L135.411 0.000863882C136.777 0.0354928 137.874 1.15342 137.874 2.52747V135.473C137.874 136.868 136.742 138 135.346 138V136.357C135.835 136.357 136.231 135.961 136.231 135.473Z" fill="#F3FCF0"/>
</g>
<defs>
<clipPath id="clip0_15_1411">
<rect width="138" height="138" rx="4" fill="white"/>
</clipPath>
</defs>
</svg>
