<svg width="32" height="32" viewBox="0 0 32 32" fill="none" xmlns="http://www.w3.org/2000/svg">
<path d="M27.5573 4.24469H4.44269C1.98919 4.24469 0 6.23388 0 8.68738V23.3114C0 25.7649 1.98919 27.7541 4.44269 27.7541H27.5573C30.0107 27.7541 32 25.7649 32 23.3114V8.68738C32 6.23388 30.0107 4.24469 27.5573 4.24469ZM11.1354 20.1069L4.91412 25.4144C4.47531 25.7889 3.81562 25.7368 3.44119 25.2976C3.06669 24.8588 3.11875 24.1991 3.55806 23.8246L9.77931 18.5171C10.2181 18.1426 10.8777 18.1947 11.2522 18.634C11.6267 19.0728 11.5746 19.7324 11.1354 20.1069ZM16 18.0891C15.1679 18.0871 14.3613 17.8106 13.7306 17.2652L13.7311 17.2657L13.7291 17.2642C13.7296 17.2647 13.7302 17.2647 13.7306 17.2652L4.18512 8.98025C3.74887 8.60163 3.70244 7.942 4.0805 7.50631C4.45906 7.07006 5.11875 7.02363 5.55438 7.40169L15.1026 15.6887C15.3066 15.8703 15.6429 16.0014 16 15.9994C16.3566 16.0004 16.6872 15.8729 16.9025 15.6851L16.9071 15.6811L26.4456 7.40175C26.8812 7.02369 27.5409 7.07013 27.9195 7.50638C28.2975 7.942 28.2511 8.60169 27.8149 8.98032L18.2668 17.2678C17.6382 17.8074 16.8326 18.0881 16 18.0891ZM28.5592 25.2976C28.1847 25.7368 27.5251 25.7889 27.0864 25.4144L20.8651 20.1069C20.4259 19.7324 20.3738 19.0728 20.7483 18.634C21.1227 18.1947 21.7824 18.1427 22.2212 18.5171L28.4424 23.8246C28.8817 24.1991 28.9337 24.8588 28.5592 25.2976Z" fill="black"/>
</svg>
