<svg width="30" height="32" viewBox="0 0 30 32" fill="none" xmlns="http://www.w3.org/2000/svg">
<path d="M28.816 7.09273C28.2707 5.14739 27.192 3.60739 25.6094 2.51806C23.612 1.14206 21.3147 0.654059 19.3307 0.358059C16.5854 -0.0512741 14.0987 -0.108608 11.7307 0.180726C9.50938 0.452726 7.83738 0.887392 6.31071 1.58873C3.32004 2.96206 1.52538 5.18606 0.977378 8.19673C0.710712 9.65806 0.532045 10.9794 0.428045 12.2394C0.188045 15.1527 0.405379 17.7314 1.09338 20.1207C1.76271 22.4501 2.93338 24.1154 4.67205 25.2087C5.11605 25.4874 5.68138 25.6887 6.23071 25.8834C6.50538 25.9807 6.76938 26.0767 7.00004 26.1781V30.8847C7.00004 31.5007 7.49871 31.9994 8.11471 31.9994C8.40538 31.9994 8.68404 31.8861 8.89204 31.6834L13.2347 27.4594C13.424 27.2434 13.424 27.2434 13.6187 27.2394C15.1027 27.2101 16.6187 27.1527 18.1254 27.0714C19.9507 26.9714 22.0654 26.7954 24.0574 25.9647C25.88 25.2034 27.2107 23.9954 28.0094 22.3754C28.8427 20.6847 29.3387 18.8527 29.524 16.7767C29.8494 13.1261 29.6174 9.95806 28.816 7.09273ZM21.2547 20.9861C20.8187 21.6994 20.1654 22.1927 19.3974 22.5127C18.836 22.7474 18.2627 22.6981 17.7094 22.4634C13.064 20.4981 9.42271 17.3994 7.01471 12.9474C6.51871 12.0301 6.17338 11.0314 5.77738 10.0621C5.69605 9.86206 5.70271 9.62873 5.66671 9.41139C5.70138 7.84473 6.90271 6.96339 8.11604 6.69673C8.58004 6.59406 8.99071 6.75806 9.33471 7.08739C10.2867 7.99673 11.04 9.05006 11.6067 10.2314C11.8547 10.7501 11.7427 11.2087 11.32 11.5941C11.2334 11.6741 11.1414 11.7487 11.0467 11.8194C10.0827 12.5447 9.94138 13.0927 10.4547 14.1847C11.3294 16.0421 12.7814 17.2887 14.66 18.0621C15.1547 18.2661 15.6214 18.1647 16 17.7634C16.0507 17.7101 16.108 17.6581 16.1454 17.5967C16.8867 16.3607 17.96 16.4834 18.952 17.1887C19.604 17.6514 20.236 18.1394 20.8814 18.6114C21.86 19.3327 21.852 20.0101 21.2547 20.9861ZM15.6814 8.19006C15.432 8.19006 15.1814 8.21006 14.936 8.25139C14.52 8.32206 14.128 8.04073 14.0587 7.62473C13.9894 7.21006 14.2694 6.81673 14.6854 6.74739C15.012 6.69406 15.348 6.66606 15.6814 6.66606C18.9814 6.66606 21.6667 9.35139 21.6667 12.6514C21.6667 12.9861 21.6387 13.3221 21.584 13.6487C21.5214 14.0207 21.1987 14.2847 20.8334 14.2847C20.792 14.2847 20.7494 14.2821 20.7067 14.2741C20.292 14.2034 20.012 13.8114 20.0814 13.3967C20.1227 13.1541 20.1427 12.9034 20.1427 12.6527C20.1427 10.1914 18.1414 8.19006 15.6814 8.19006ZM19 13.1421C19 13.5621 18.6587 13.9034 18.2387 13.9034C17.8187 13.9034 17.4774 13.5621 17.4774 13.1421C17.4774 11.8821 16.452 10.8567 15.192 10.8567C14.772 10.8567 14.4307 10.5154 14.4307 10.0954C14.4307 9.67539 14.772 9.33406 15.192 9.33406C17.2907 9.33273 19 11.0421 19 13.1421ZM24.128 14.0714C24.048 14.4261 23.7347 14.6647 23.3854 14.6647C23.3294 14.6647 23.272 14.6581 23.216 14.6461C22.8054 14.5527 22.548 14.1447 22.6414 13.7354C22.752 13.2487 22.808 12.7461 22.808 12.2421C22.808 8.53806 19.7947 5.52339 16.0894 5.52339C15.584 5.52339 15.0827 5.57939 14.596 5.69006C14.188 5.78473 13.7774 5.52606 13.6854 5.11539C13.592 4.70473 13.8494 4.29673 14.26 4.20473C14.8574 4.06739 15.4734 3.99939 16.092 3.99939C20.636 3.99939 24.3334 7.69673 24.3334 12.2407C24.3334 12.8594 24.264 13.4754 24.128 14.0714Z" fill="#9100EC"/>
</svg>
