<svg width="60" height="60" viewBox="0 0 60 60" fill="none" xmlns="http://www.w3.org/2000/svg">
<g clip-path="url(#clip0_49_2847)">
<path d="M30 0C13.4314 0 0 13.4314 0 30C0 46.5686 13.4314 60 30 60C46.5686 60 60 46.5686 60 30C60 13.4314 46.5686 0 30 0ZM49.0166 17.1094H43.5478C42.9191 14.4711 42.1036 12.0454 41.1353 9.9007C42.9852 10.9291 44.7035 12.2207 46.2414 13.7586C47.2808 14.7981 48.2071 15.9204 49.0166 17.1094ZM52.9688 30C52.9688 32.0048 52.712 33.97 52.2171 35.8594H44.7131C44.9007 33.9642 45 32.0054 45 30C45 27.9946 44.9007 26.0358 44.7131 24.1406H52.2171C52.712 26.03 52.9688 27.9952 52.9688 30ZM30 52.9688C29.3906 52.9688 27.5334 51.771 25.6823 48.0688C24.9156 46.5352 24.2576 44.7882 23.7192 42.8906H36.2807C35.7423 44.7881 35.0844 46.5352 34.3175 48.0688C32.4666 51.771 30.6094 52.9688 30 52.9688ZM22.3609 35.8594C22.1445 33.9554 22.0312 31.9888 22.0312 30C22.0312 28.0112 22.1445 26.0446 22.3609 24.1406H37.6391C37.8555 26.0446 37.9688 28.0112 37.9688 30C37.9688 31.9888 37.8555 33.9554 37.6391 35.8594H22.3609ZM7.03125 30C7.03125 27.9952 7.28801 26.03 7.78289 24.1406H15.2869C15.0993 26.0358 15 27.9946 15 30C15 32.0054 15.0993 33.9642 15.2869 35.8594H7.78289C7.28801 33.97 7.03125 32.0048 7.03125 30ZM30 7.03125C30.6094 7.03125 32.4666 8.22902 34.3177 11.9312C35.0844 13.4648 35.7424 15.2118 36.2808 17.1094H23.7192C24.2576 15.2119 24.9155 13.4648 25.6823 11.9312C27.5334 8.22902 29.3906 7.03125 30 7.03125ZM18.8647 9.9007C17.8963 12.0454 17.0809 14.471 16.4522 17.1094H10.9834C11.793 15.9204 12.7192 14.7981 13.7586 13.7586C15.2966 12.2207 17.0148 10.9291 18.8647 9.9007ZM10.9834 42.8906H16.4522C17.0809 45.5289 17.8964 47.9546 18.8647 50.0993C17.0148 49.0709 15.2965 47.7793 13.7586 46.2414C12.7192 45.2019 11.7929 44.0796 10.9834 42.8906ZM41.1353 50.0993C42.1037 47.9546 42.9191 45.529 43.5478 42.8906H49.0166C48.207 44.0796 47.2808 45.2019 46.2414 46.2414C44.7034 47.7793 42.9852 49.0709 41.1353 50.0993Z" fill="white"/>
</g>
<defs>
<clipPath id="clip0_49_2847">
<rect width="60" height="60" fill="white"/>
</clipPath>
</defs>
</svg>
